<svg width="52" height="52" viewBox="0 0 52 52" fill="none" xmlns="http://www.w3.org/2000/svg">
<mask id="mask0_120_106" style="mask-type:alpha" maskUnits="userSpaceOnUse" x="0" y="0" width="52" height="52">
<path d="M25.5102 0C39.5991 0 51.0204 11.6406 51.0204 26C51.0204 32.5604 48.6364 38.5533 44.7033 43.1278L46.1145 44.9048C47.5993 46.7743 47.3161 49.5166 45.4819 51.0299C43.7132 52.4892 41.1482 52.2729 39.6358 50.5794L39.4722 50.3852L38.0783 48.6308C34.3686 50.7755 30.0797 52 25.5102 52C11.4213 52 0 40.3594 0 26C0 11.6406 11.4213 0 25.5102 0ZM25.5102 8.71C16.1411 8.71 8.54592 16.451 8.54592 26C8.54592 35.549 16.1411 43.29 25.5102 43.29C28.0369 43.29 30.4346 42.727 32.5891 41.7173L30.7988 39.4652C29.3139 37.5957 29.5971 34.8534 31.4314 33.3401C33.2001 31.8808 35.7651 32.0971 37.2774 33.7906L37.441 33.9848L39.2049 36.2063C41.2607 33.3458 42.4745 29.8174 42.4745 26C42.4745 16.451 34.8793 8.71 25.5102 8.71Z" fill="#242424"/>
</mask>
<g mask="url(#mask0_120_106)">
<path d="M0 0L51.0204 5.7777e-06V20.8L3.07613e-06 31.2L0 0Z" fill="url(#paint0_linear_120_106)"/>
<path d="M51.0204 20.7998L0 31.1998V51.9998H51.0204V20.7998Z" fill="url(#paint1_linear_120_106)"/>
<path d="M4.46429 33.8002C6.92985 33.8002 8.92858 31.7631 8.92858 29.2502C8.92858 26.7373 6.92985 24.7002 4.46429 24.7002C1.99873 24.7002 0 26.7373 0 29.2502C0 31.7631 1.99873 33.8002 4.46429 33.8002Z" fill="#FDE600"/>
<path d="M51.0204 22.7502C51.0204 25.2631 49.0216 27.3002 46.5561 27.3002C44.0905 27.3002 42.0918 25.2631 42.0918 22.7502C42.0918 20.2373 44.0905 18.2002 46.5561 18.2002C49.0216 18.2002 51.0204 20.2373 51.0204 22.7502Z" fill="#FF5AEC"/>
</g>
<defs>
<linearGradient id="paint0_linear_120_106" x1="-3.57493" y1="21.1894" x2="51.5565" y2="1.5012" gradientUnits="userSpaceOnUse">
<stop offset="0.25" stop-color="#FDE600"/>
<stop offset="1" stop-color="#00DFA1"/>
</linearGradient>
<linearGradient id="paint1_linear_120_106" x1="51.0204" y1="36.3998" x2="0" y2="36.3998" gradientUnits="userSpaceOnUse">
<stop offset="0.25" stop-color="#FF5AEC"/>
<stop offset="1" stop-color="#00C9FA"/>
</linearGradient>
</defs>
</svg>
